<svg xmlns="http://www.w3.org/2000/svg" viewBox="0 0 64 64">
  <defs>
    <linearGradient id="grad" x1="0%" y1="0%" x2="100%" y2="100%">
      <stop offset="0%" style="stop-color:#10b981;stop-opacity:1" />
      <stop offset="100%" style="stop-color:#059669;stop-opacity:1" />
    </linearGradient>
  </defs>
  <circle cx="32" cy="32" r="30" fill="#0a1f1a"/>
  <path d="M32 12 L24 24 L28 24 L28 36 L36 36 L36 24 L40 24 Z" fill="url(#grad)" transform="rotate(0 32 32)"/>
  <path d="M32 12 L24 24 L28 24 L28 36 L36 36 L36 24 L40 24 Z" fill="url(#grad)" transform="rotate(120 32 32)"/>
  <path d="M32 12 L24 24 L28 24 L28 36 L36 36 L36 24 L40 24 Z" fill="url(#grad)" transform="rotate(240 32 32)"/>
  <circle cx="32" cy="32" r="8" fill="#0a1f1a"/>
</svg>
